<?xml version="1.0" standalone="no"?><!DOCTYPE svg PUBLIC "-//W3C//DTD SVG 1.1//EN" "http://www.w3.org/Graphics/SVG/1.1/DTD/svg11.dtd"><svg t="1699243099101" class="icon" viewBox="0 0 1049 1024" version="1.1" xmlns="http://www.w3.org/2000/svg" p-id="43100" xmlns:xlink="http://www.w3.org/1999/xlink" width="204.8828125" height="200"><path d="M524.973478 0C234.671872 0 0 234.672872 0 524.973478c0 232.064885 150.365278 428.494941 358.963275 498.027607 26.074875 5.214975 35.635829-11.298946 35.635829-25.204879 0-12.167942-0.869996-53.887741-0.869996-97.346532-146.018298 31.28985-176.439152-62.579699-176.439152-62.5797-23.466887-60.839708-58.23372-76.485633-58.23372-76.485632-47.80377-32.159845 3.476983-32.159845 3.476983-32.159846 53.019745 3.477983 80.831612 53.889741 80.831612 53.889741 46.934774 79.962616 122.551411 57.363724 152.972265 43.457792 4.345979-33.897837 18.252912-57.365724 33.028841-70.402662-116.46944-12.168942-239.019852-57.363724-239.019852-259.008756 0-57.364724 20.8599-104.299499 53.889742-140.805323-5.216975-13.036937-23.469887-66.924678 5.212974-139.065332 0 0 44.327787-13.906933 144.280307 53.887741 41.7198-11.298946 86.916582-17.382916 131.24337-17.382916S614.497048 259.878751 656.216847 271.178697c99.95352-67.794674 144.281307-53.887741 144.281307-53.887741 28.681862 72.139653 10.42995 126.029394 5.214975 139.065332 33.896837 36.504825 53.887741 83.439599 53.887741 140.804323 0 201.646031-122.552411 245.971818-239.888848 259.009756 19.121908 16.513921 35.635829 47.80377 35.635829 97.346532 0 70.401662-0.869996 126.89739-0.869996 144.279307 0 13.906933 9.561954 30.420854 35.636829 25.205879 208.596998-69.531666 358.962275-265.962722 358.962276-498.027607C1049.946955 234.671872 814.403087 0 524.973478 0z" fill="#333333" p-id="43101"></path><path d="M199.038044 753.561379c-0.869996 2.607987-5.214975 3.476983-8.691959 1.739992s-6.083971-5.215975-4.344979-7.823962c0.868996-2.606987 5.214975-3.476983 8.689959-1.737992s5.215975 5.214975 4.346979 7.821962z m20.859899 23.467888c-2.607987 2.606987-7.822962 0.869996-10.429949-2.607988-3.476983-3.475983-4.346979-8.689958-1.738992-11.298946 2.606987-2.606987 6.952967-0.868996 10.42995 2.607988 3.476983 4.345979 4.345979 9.559954 1.737991 11.299946z m20.8599 30.419853c-3.476983 2.607987-8.691958 0-11.299945-4.344979-3.476983-4.345979-3.476983-10.42995 0-12.167941 3.476983-2.607987 8.691958 0 11.299945 4.345979 3.475983 4.344979 3.475983 9.559954 0 12.167941z m28.681862 29.552858c-2.606987 3.475983-8.691958 2.606987-13.906933-1.739991-4.345979-4.343979-6.083971-10.42995-2.606987-13.035938 2.606987-3.476983 8.690958-2.607987 13.906933 1.737992 4.344979 3.476983 5.214975 9.559954 2.606987 13.037937z m39.112813 16.513921c-0.869996 4.345979-6.953967 6.083971-13.037938 4.345979-6.083971-1.737992-9.559954-6.953967-8.691958-10.42995 0.869996-4.345979 6.953967-6.083971 13.037937-4.345979 6.083971 1.737992 9.559954 6.083971 8.691959 10.42995z m42.589795 3.476983c0 4.345979-5.216975 7.821962-11.299946 7.821963-6.084971 0-11.299946-3.475983-11.299946-7.821963s5.214975-7.822962 11.299946-7.822962c6.082971 0 11.299946 3.476983 11.299946 7.822962z m39.979808-6.953966c0.869996 4.345979-3.476983 8.691958-9.559954 9.559954-6.084971 0.869996-11.299946-1.736992-12.169942-6.082971-0.867996-4.345979 3.476983-8.691958 9.561954-9.559954 6.083971-0.869996 11.299946 1.736992 12.167942 6.082971z m0 0" fill="#333333" p-id="43102"></path></svg>