<?xml version="1.0" standalone="no"?><!DOCTYPE svg PUBLIC "-//W3C//DTD SVG 1.1//EN" "http://www.w3.org/Graphics/SVG/1.1/DTD/svg11.dtd"><svg t="1699241685924" class="icon" viewBox="0 0 1024 1024" version="1.1" xmlns="http://www.w3.org/2000/svg" p-id="20536" xmlns:xlink="http://www.w3.org/1999/xlink" width="200" height="200"><path d="M1019.648 803.328a304.7424 304.7424 0 0 0-99.0208-91.0848 1159.0144 1159.0144 0 0 0-133.12-81.2032 1824.4608 1824.4608 0 0 0-187.4432-349.696c-98.9696-152.3712-213.9136-216.576-342.3232-191.1296q-21.0432-21.4528-43.52-41.2672A259.6864 259.6864 0 0 0 56.832 0.6656a62.9248 62.9248 0 0 0-46.08 23.0912c-23.04 30.72-15.36 74.5472 90.9312 217.8048a378.88 378.88 0 0 1 24.5248 108.7488 214.7328 214.7328 0 0 0 53.1456 121.2928l-34.048 119.9104a342.5792 342.5792 0 0 0 76.1344 293.7344 56.32 56.32 0 0 0 61.8496 17.3568c22.8864-9.2672 41.3184-32.256 53.248-97.9968q9.1136 23.1936 19.3536 49.92c36.7616 96.1024 72.704 149.248 113.1008 167.2704a33.7408 33.7408 0 0 0 43.0592-18.944 35.5328 35.5328 0 0 0-15.9744-45.312c-10.24-4.5056-37.5808-25.9584-76.8-128.6656-33.1264-86.6816-57.2928-144.64-73.7792-177.2544a33.9456 33.9456 0 0 0-37.5808-18.0224 34.816 34.816 0 0 0-26.624 32.768 600.6272 600.6272 0 0 1-20.48 160.9728 285.3888 285.3888 0 0 1-50.2272-216.32q33.1264-116.992 38.9632-137.1648a35.84 35.84 0 0 0-6.2464-32.0512c-44.288-56.0128-49.1008-82.7904-49.1008-91.648a463.4624 463.4624 0 0 0-30.1056-137.0624 34.4064 34.4064 0 0 0-5.12-9.728 736.256 736.256 0 0 1-85.9648-133.4784 211.3024 211.3024 0 0 1 96.768 32.1536 712.1408 712.1408 0 0 1 52.1216 50.688 33.28 33.28 0 0 0 33.2288 9.7792c106.5472-28.3648 200.96 23.1424 288.3072 157.696a1679.0528 1679.0528 0 0 1 184.32 347.392 34.7136 34.7136 0 0 0 17.408 20.1728 1061.6832 1061.6832 0 0 1 136.96 82.432c7.8848 5.4784 14.9504 10.5984 21.3504 15.36h-104.96a34.048 34.048 0 0 0-30.72 20.48 35.84 35.84 0 0 0 5.12 37.376q50.6368 61.7472 104.0896 120.9856a33.4336 33.4336 0 0 0 32.9216 10.9056 34.4576 34.4576 0 0 0 25.1904-24.4224 35.84 35.84 0 0 0-8.6016-34.5088q-27.136-29.8496-53.248-60.5696h117.0944a33.8944 33.8944 0 0 0 29.3888-17.408 35.84 35.84 0 0 0 0-34.9184z" fill="#80cef6" p-id="20537"></path><path d="M294.144 251.2896q20.48 35.4304 31.8464 50.7904c9.0112 17.664 22.9888 31.744 31.9488 49.4592l2.2016-2.1504a60.928 60.928 0 0 0 2.9696-81.92c-13.0048-19.8144-55.3984-19.2512-68.9664-16.1792z" fill="#80cef6" p-id="20538"></path></svg>