<?xml version="1.0" standalone="no"?><!DOCTYPE svg PUBLIC "-//W3C//DTD SVG 1.1//EN" "http://www.w3.org/Graphics/SVG/1.1/DTD/svg11.dtd"><svg t="1699241845713" class="icon" viewBox="0 0 1024 1024" version="1.1" xmlns="http://www.w3.org/2000/svg" p-id="26148" xmlns:xlink="http://www.w3.org/1999/xlink" width="200" height="200"><path d="M687.904 608.6c5.056-42.096 3.544-48.272 34.896-41.456l7.96 0.704c24.112 1.096 55.656-3.88 74.176-12.488 39.888-18.504 63.536-49.416 24.208-41.296-89.72 18.504-95.888-11.864-95.888-11.864C828 361.632 867.608 183.2 833.424 139.52 740.192 20.384 578.8 76.72 576.096 78.184l-0.864 0.168c-17.728-3.688-37.56-5.88-59.848-6.24-40.6-0.664-71.408 10.648-94.776 28.368 0 0-287.912-118.616-274.52 149.168 2.848 56.968 81.656 431.056 175.648 318.064 34.352-41.312 67.552-76.248 67.552-76.248 16.488 10.952 36.224 16.536 56.928 14.528l1.6-1.36c-0.496 5.128-0.28 10.144 0.648 16.08-24.216 27.064-17.096 31.816-65.512 41.776-48.976 10.096-20.2 28.064-1.424 32.76 22.784 5.704 75.464 13.776 111.072-36.072l-1.416 5.688c9.504 7.6 8.856 54.616 10.2 88.208 1.344 33.592 3.6 64.936 10.448 83.432 6.848 18.48 14.928 66.088 78.552 52.456 53.168-11.408 93.816-27.808 97.52-180.36" p-id="26149"></path><path d="M569.664 822.16c-28.144 0-46.464-10.88-57.6-21.392-16.8-15.848-23.464-36.272-27.44-48.472l-1.72-5.096c-8.016-21.64-10.728-52.792-12.336-92.904a1594 1594 0 0 1-0.6-18.816c-0.136-4.808-0.304-10.84-0.544-17.168a121.256 121.256 0 0 1-31.976 10.112c-19.84 3.392-41.168 2.288-63.408-3.272-15.688-3.92-31.992-12.048-41.28-24.608-27.08 23.72-52.912 20.496-66.984 15.808-24.824-8.28-47.04-31.536-67.928-71.12-14.872-28.184-29.264-64.92-42.776-109.168-23.52-77.064-38.464-158.232-39.792-184.872-4.176-83.416 18.272-143.064 66.72-177.28 76.44-53.992 192.24-22.248 234.456-7.832 28.36-17.096 61.728-25.424 99.44-24.816 20.256 0.328 39.536 2.112 57.448 5.296 18.68-5.872 55.592-14.304 97.84-13.784 77.84 0.928 142.344 31.264 186.528 87.728 31.528 40.288 15.944 124.88 3.84 171.728-17.016 65.88-46.848 135.968-83.488 196.976 9.952 0.072 24.36-1.128 44.856-5.352 40.432-8.352 52.248 13.328 55.456 23.032 12.856 38.936-43.024 68.352-60.456 76.44-22.336 10.376-58.744 16.688-88.568 15.32l-1.304-0.088-7.832-0.688-0.776 6.528-0.744 6.392c-2 77.312-13.048 126.272-35.776 158.632-23.816 33.912-56.928 43.424-86.088 49.672a129.168 129.168 0 0 1-27.168 3.064z m-59.216-281.392c18.168 14.536 19.76 41.888 21.176 93.008 0.176 6.376 0.344 12.416 0.568 18.056 0.688 17.072 2.296 57.056 8.552 73.952 0.888 2.384 1.68 4.816 2.512 7.376 6.976 21.376 10.48 32.088 40.648 25.624 25.336-5.424 38.352-10.296 48.544-24.808 14.816-21.104 23.104-63.528 24.624-126.136l30.816 0.752-30.608-3.672 0.896-7.64c2.936-25.184 5.048-43.392 21.888-55.424 13.504-9.656 28.904-8.72 41.168-6.512-13.472-10.168-17.2-22.12-18.192-27.016l-2.568-12.656 7.216-10.72c41.6-61.728 75.912-137.592 94.136-208.144 18.72-72.496 13.008-111 7.304-118.28-75.568-96.568-206.632-56.704-220.312-52.168l-2.32 1.248-11.6 2.168-5.944-1.232c-16.376-3.4-34.568-5.28-54.08-5.6-30.648-0.512-55.368 6.728-75.64 22.112l-14.064 10.664-16.328-6.728c-34.864-14.256-137.296-42.92-191.344-4.64-30 21.248-43.664 62.888-40.624 123.76 1 20.096 14.664 96.168 37.176 169.96 31.128 101.968 59.416 135.832 71.224 139.776 2.056 0.696 7.408-3.464 12.728-9.848 34.608-41.624 67.52-76.32 68.904-77.784l17.848-18.776 21.576 14.336c8.696 5.784 18.288 9.056 28.144 9.672l51.464-43.888-7.456 76.08c-0.168 1.712-0.248 4.032 0.424 8.352l2.24 14.424-9.704 10.864-1.12 1.256 28.272 13.056 11.856-14.824z" p-id="26150"></path><path d="M829.168 514.064c-89.728 18.504-95.896-11.872-95.896-11.872 94.736-140.568 134.336-319.008 100.16-362.68C740.192 20.376 578.8 76.72 576.104 78.184l-0.872 0.152c-17.728-3.672-37.56-5.864-59.856-6.224-40.6-0.664-71.4 10.64-94.768 28.36 0 0-287.92-118.608-274.528 149.176 2.848 56.968 81.656 431.056 175.648 318.064 34.352-41.312 67.544-76.248 67.544-76.248 16.488 10.952 36.224 16.536 56.92 14.528l1.608-1.36c-0.496 5.128-0.272 10.144 0.64 16.08-24.208 27.064-17.104 31.816-65.504 41.776-48.984 10.096-20.208 28.064-1.416 32.76 22.776 5.704 75.464 13.776 111.064-36.072l-1.424 5.688c9.488 7.6 16.152 49.432 15.032 87.352s-1.864 63.952 5.616 84.288c7.48 20.328 14.928 66.088 78.56 52.456 53.168-11.4 80.72-40.928 84.56-90.176 2.72-35.016 8.872-29.84 9.264-61.152l4.944-14.824c5.688-47.472 0.904-62.784 33.664-55.656l7.96 0.696c24.112 1.104 55.664-3.88 74.184-12.488 39.888-18.512 63.544-49.416 24.224-41.296z" fill="#336791" p-id="26151"></path><path d="M572.88 803.152c-53.048 0.008-69.848-42-76.728-59.176-10.056-25.168-12.232-122.864-9.992-202.984a10.288 10.288 0 0 1 20.56 0.576c-2.584 92.408 1.088 176.144 8.528 194.768 11.624 29.056 29.248 54.472 79.096 43.8 47.32-10.152 65.04-28.096 72.928-73.84 6.064-35.112 18.032-134.992 19.504-154.704a10.28 10.28 0 0 1 20.504 1.528c-1.536 20.512-13.456 120.208-19.752 156.672-9.32 54.04-33.408 78.552-88.88 90.448a123.696 123.696 0 0 1-25.768 2.912zM285.272 597.992a42.744 42.744 0 0 1-13.632-2.248c-34.456-11.496-67.272-67.608-97.544-166.792-23.04-75.504-37.64-154.304-38.92-179.912-3.8-75.92 15.76-129.64 58.12-159.656 83.808-59.384 224.8-2.832 230.76-0.4a10.28 10.28 0 0 1-7.776 19.032v0.008c-1.36-0.56-136.56-54.72-211.136-1.832-36.224 25.688-52.856 73.4-49.44 141.832 1.08 21.568 14.72 98.488 38.056 174.936 27.024 88.536 57.784 144.416 84.384 153.28 4.168 1.4 16.872 5.632 35.048-16.208 34.176-41.12 65.576-73.936 65.888-74.264a10.288 10.288 0 0 1 14.848 14.224c-0.312 0.32-31.232 32.648-64.928 73.184-15.96 19.184-31.264 24.816-43.728 24.816z m447.36-86.632a10.272 10.272 0 0 1-8.52-16.032c95.768-142.112 129.384-313.816 100.592-350.6-36.24-46.304-87.416-70.496-152.096-71.88-47.896-1.04-85.968 11.192-92.184 13.328l-1.56 0.632c-6.256 1.968-11.056-1.464-12.864-5.472a10.32 10.32 0 0 1 4.064-13.048l2.768-1.136-0.136 0.04 0.144-0.048c10.568-3.864 49.216-15.464 97.096-14.912 71.576 0.752 130.696 28.36 170.968 79.816 19.056 24.352 19.096 80.456 0.12 153.92-19.344 74.896-55.744 155.4-99.856 220.856a10.256 10.256 0 0 1-8.536 4.536z m4.888 65.784c-16.352 0-31.008-2.296-39.784-7.56-9.024-5.4-10.744-12.752-10.968-16.648-2.464-43.232 21.392-50.76 33.56-54.192-1.696-2.56-4.112-5.576-6.6-8.688-7.096-8.864-16.808-21.008-24.296-39.168-1.168-2.832-4.848-9.432-9.104-17.064-23.064-41.352-71.048-127.408-40.224-171.48 14.272-20.392 42.672-28.416 84.528-23.936-12.312-37.512-70.952-154.864-210.072-157.144-41.848-0.704-76.168 12.168-101.952 38.2-57.736 58.312-55.64 163.816-55.616 164.864a10.272 10.272 0 1 1-20.552 0.536c-0.128-4.68-2.288-115.392 61.56-179.872 29.88-30.176 69.208-45.072 116.896-44.296C603.92 62.16 661.208 107.408 693.6 145.12c35.296 41.088 52.608 86.416 54.032 101.536 1.064 11.248-7.008 13.504-8.64 13.832l-3.704 0.088c-41.08-6.576-67.432-2.016-78.328 13.56-23.448 33.504 21.944 114.904 41.328 149.672 4.952 8.864 8.52 15.272 10.152 19.232 6.368 15.44 14.672 25.816 21.344 34.152 5.864 7.336 10.952 13.688 12.776 21.16 0.84 1.48 12.824 19.192 83.904 4.52 17.816-3.672 28.496-0.528 31.76 9.344 6.424 19.432-29.616 42.088-49.568 51.36-17.904 8.312-46.44 13.568-71.136 13.568z m-30.248-25.904c2.248 2.28 13.528 6.2 36.896 5.2 20.768-0.896 42.68-5.416 55.832-11.512 16.816-7.808 28.032-16.536 33.848-22.496l-3.232 0.592c-45.448 9.384-77.592 8.136-95.536-3.72a38.568 38.568 0 0 1-3.48-2.584c-1.944 0.768-3.744 1.272-5.024 1.632-10.184 2.856-20.712 5.808-19.304 32.888z m-293.576 57.432c-11.288 0-23.168-1.528-35.304-4.576-12.568-3.144-33.768-12.608-33.44-28.152 0.36-17.448 25.728-22.68 35.288-24.648 34.496-7.104 36.744-9.952 47.528-23.64 3.144-3.992 7.056-8.96 12.384-14.92 7.92-8.856 16.576-13.352 25.728-13.352 6.368 0 11.6 2.168 15.048 3.592 11.008 4.56 20.192 15.584 23.968 28.784 3.408 11.904 1.784 23.36-4.576 32.256-20.864 29.224-50.816 44.656-86.624 44.656z m-46.536-31.84c3.104 2.392 9.312 5.592 16.216 7.328 10.512 2.624 20.704 3.96 30.32 3.96 29.296 0 52.808-12.136 69.896-36.048 3.56-4.992 2.496-11.32 1.544-14.656-2-6.976-6.96-13.32-12.072-15.448-2.776-1.152-5.072-2.032-7.184-2.032-1.136 0-4.584 0-10.4 6.504-4.912 5.488-8.44 9.968-11.568 13.928-13.424 17.048-19.576 22.832-59.528 31.064-9.744 2.016-14.744 4.048-17.224 5.4z m79.056-47.424a10.288 10.288 0 0 1-10.152-8.72 48.208 48.208 0 0 1-0.512-5.152c-26.192-0.496-51.456-11.728-70.632-31.744-24.248-25.304-35.288-60.36-30.28-96.176 5.44-38.896 3.408-73.232 2.312-91.68a204.112 204.112 0 0 1-0.504-11.4c0.016-3.248 0.08-11.88 28.92-26.496 10.256-5.2 30.824-14.272 53.288-16.6 37.232-3.84 61.768 12.736 69.112 46.688 19.824 91.68 1.568 132.232-11.76 161.84-2.488 5.504-4.832 10.72-6.704 15.76l-1.656 4.456c-7.04 18.88-13.128 35.192-11.256 47.384a10.296 10.296 0 0 1-8.6 11.728l-1.576 0.112zM357.072 287.376l0.408 7.344c1.136 19.16 3.248 54.824-2.48 95.752-4.128 29.536 4.896 58.376 24.76 79.104 15.696 16.384 36.368 25.424 57.608 25.424h0.44c2.384-10.024 6.328-20.6 10.576-32l1.648-4.424c2.12-5.696 4.6-11.208 7.224-17.04 12.832-28.512 28.8-64 10.408-149.064-3.648-16.84-12.48-26.592-27-29.808-29.824-6.592-74.264 15.84-83.592 24.712z m62.048-4.36c-0.512 3.632 6.664 13.336 16.008 14.632 9.336 1.304 17.328-6.28 17.832-9.912 0.504-3.64-6.664-7.64-16.016-8.944-9.336-1.304-17.328 0.584-17.824 4.224z m18.16 18.216l-2.624-0.184c-5.8-0.808-11.664-4.464-15.672-9.784-1.408-1.864-3.712-5.496-3.256-8.728 0.656-4.744 6.432-7.576 15.464-7.576 2.024 0 4.12 0.152 6.24 0.44 4.928 0.688 9.512 2.112 12.896 4 5.864 3.28 6.296 6.928 6.032 8.824-0.728 5.224-9.064 13.008-19.08 13.008z m-14.752-17.608c0.296 2.24 5.84 9.64 13.072 10.64l1.672 0.12c6.672 0 11.664-5.256 12.248-6.976-0.616-1.168-4.904-4.088-13.048-5.208a37.76 37.76 0 0 0-5.288-0.384c-5.216-0.008-8.008 1.168-8.656 1.808z m280.968-8.024c0.504 3.64-6.656 13.344-16.008 14.64-9.344 1.296-17.336-6.28-17.848-9.92-0.496-3.632 6.672-7.64 16.016-8.936 9.344-1.312 17.328 0.592 17.84 4.216z m-18.16 16.496c-9 0-16.752-7-17.392-11.536-0.736-5.448 8.232-9.592 17.48-10.872 2.032-0.288 4.048-0.432 5.992-0.432 7.976 0 13.256 2.344 13.784 6.112 0.344 2.448-1.528 6.216-4.76 9.608-2.128 2.24-6.608 6.12-12.704 6.96l-2.4 0.16z m6.072-19.416c-1.784 0-3.64 0.136-5.52 0.392-9.296 1.288-14.824 5.024-14.56 7.024 0.312 2.192 6.24 8.576 14 8.576l1.912-0.136c5.072-0.712 8.88-4.016 10.696-5.928 2.848-3 3.984-5.816 3.848-6.784-0.168-1.256-3.592-3.144-10.376-3.144z m25.552 211.624a10.28 10.28 0 0 1-8.536-16c21.888-32.696 17.88-66.048 14.008-98.288-1.656-13.744-3.36-27.944-2.912-41.584 0.448-14.024 2.224-25.592 3.952-36.792 2.04-13.256 3.968-25.792 3.168-40.656a10.288 10.288 0 0 1 20.536-1.104c0.912 16.992-1.272 31.168-3.384 44.888-1.632 10.584-3.32 21.528-3.728 34.32-0.392 12.072 1.152 24.896 2.784 38.464 4.128 34.296 8.792 73.168-17.336 112.184-1.984 2.96-5.24 4.568-8.552 4.568z" fill="#FFFFFF" p-id="26152"></path><path d="M22.68 825.472a209.84 209.84 0 0 1 34.744-2.704c17.88 0 30.992 4.16 39.312 11.648 7.696 6.656 12.272 16.848 12.272 29.336 0 12.688-3.752 22.672-10.824 29.952-9.568 10.192-25.168 15.392-42.848 15.392-5.408 0-10.4-0.208-14.552-1.248v56.168H22.68v-138.544z m18.104 67.6c3.952 1.04 8.944 1.456 14.976 1.456 21.832 0 35.152-10.608 35.152-29.952 0-18.512-13.104-27.456-33.072-27.456-7.904 0-13.936 0.624-17.056 1.456v54.496z m177.84 19.76c0 37.232-25.8 53.464-50.136 53.464-27.248 0-48.256-19.968-48.256-51.8 0-33.696 22.048-53.456 49.92-53.456 28.92-0.008 48.472 21.008 48.472 51.792z m-79.872 1.04c0 22.048 12.688 38.688 30.576 38.688 17.472 0 30.568-16.432 30.568-39.104 0-17.056-8.52-38.688-30.16-38.688s-30.984 19.968-30.984 39.104z m100.456 31.408c5.408 3.536 14.976 7.28 24.128 7.28 13.312 0 19.552-6.656 19.552-14.976 0-8.736-5.192-13.52-18.72-18.512-18.096-6.448-26.624-16.432-26.624-28.496 0-16.224 13.104-29.536 34.736-29.536 10.192 0 19.144 2.912 24.76 6.24l-4.576 13.312a39.176 39.176 0 0 0-20.592-5.824c-10.816 0-16.848 6.24-16.848 13.728 0 8.32 6.04 12.064 19.144 17.056 17.472 6.656 26.416 15.392 26.416 30.368 0 17.68-13.728 30.16-37.648 30.16-11.024 0-21.216-2.704-28.288-6.864l4.56-13.936z m106.92-110.872v28.912h26.2v13.936h-26.2v54.288c0 12.48 3.528 19.552 13.728 19.552a40.72 40.72 0 0 0 10.608-1.248l0.832 13.728c-3.528 1.456-9.152 2.496-16.216 2.496-8.528 0-15.4-2.704-19.768-7.696-5.192-5.408-7.072-14.352-7.072-26.208v-54.912h-15.6v-13.936h15.6v-24.128l17.888-4.784z m132.288 28.92c-0.424 7.28-0.832 15.392-0.832 27.664v58.448c0 23.088-4.576 37.232-14.352 45.976-9.776 9.152-23.92 12.064-36.608 12.064-12.064 0-25.376-2.912-33.496-8.32l4.576-13.936c6.656 4.16 17.056 7.904 29.536 7.904 18.72 0 32.448-9.776 32.448-35.152v-11.232h-0.416c-5.616 9.36-16.432 16.848-32.032 16.848-24.96 0-42.848-21.216-42.848-49.096 0-34.112 22.256-53.456 45.344-53.456 17.48 0 27.048 9.152 31.416 17.472h0.416l0.832-15.184h16.016z m-18.928 39.728c0-3.12-0.208-5.824-1.04-8.32-3.328-10.608-12.272-19.344-25.584-19.344-17.48 0-29.952 14.768-29.952 38.064 0 19.76 9.984 36.192 29.744 36.192 11.232 0 21.424-7.072 25.376-18.72 1.04-3.12 1.464-6.656 1.464-9.776v-18.096z m47.208-8.32c0-11.856-0.208-22.048-0.832-31.408h16.024l0.616 19.76h0.832c4.576-13.52 15.6-22.048 27.872-22.048 2.08 0 3.528 0.208 5.192 0.624v17.264a27.424 27.424 0 0 0-6.232-0.624c-12.896 0-22.056 9.776-24.544 23.504a51.52 51.52 0 0 0-0.832 8.528v53.664h-18.096v-69.264z m76.136 22.256c0.416 24.752 16.216 34.944 34.52 34.944 13.112 0 21.008-2.288 27.872-5.2l3.12 13.104c-6.448 2.912-17.472 6.24-33.488 6.24-30.992 0-49.504-20.384-49.504-50.752 0-30.368 17.888-54.296 47.216-54.296 32.864 0 41.6 28.912 41.6 47.424 0 3.744-0.416 6.656-0.624 8.528h-70.712z m53.664-13.104c0.2-11.648-4.792-29.744-25.376-29.744-18.512 0-26.624 17.056-28.088 29.744h53.464z" p-id="26153"></path><path d="M674.968 941.952a64.128 64.128 0 0 0 32.448 9.152c18.512 0 29.328-9.776 29.328-23.92 0-13.104-7.488-20.592-26.416-27.872-22.88-8.112-37.024-19.968-37.024-39.728 0-21.84 18.096-38.064 45.344-38.064 14.352 0 24.752 3.328 30.992 6.864l-4.992 14.768a55.84 55.84 0 0 0-26.624-6.656c-19.136 0-26.416 11.44-26.416 21.008 0 13.104 8.52 19.552 27.872 27.04 23.712 9.16 35.776 20.592 35.776 41.184 0 21.632-16.016 40.352-49.088 40.352-13.52 0-28.288-3.952-35.784-8.944l4.584-15.184z m220.688 42.64a758.768 758.768 0 0 1-53.664-16.224c-2.912-1.04-5.824-2.08-8.528-2.08-33.28-1.248-61.776-25.792-61.776-70.928 0-44.928 27.456-73.84 65.312-73.84 38.064 0 62.824 29.536 62.824 70.928 0 35.984-16.64 59.072-39.936 67.184v0.832c13.936 3.536 29.12 6.864 40.976 8.944l-5.208 15.184z m-14.976-91.312c0-28.08-14.552-57-44.304-57-30.576 0-45.552 28.288-45.344 58.664-0.208 29.744 16.224 56.576 44.512 56.576 28.92 0 45.136-26.208 45.136-58.24z m42.632-69.472h18.104v125.008h59.904v15.184h-78.008v-140.192z" fill="#336791" p-id="26154"></path></svg>